<?xml version="1.0" encoding="UTF-8" standalone="no"?>
<!-- Created with Inkscape (http://www.inkscape.org/) -->

<svg
   width="114.5501mm"
   height="36.66798mm"
   viewBox="0 0 114.5501 36.66798"
   version="1.1"
   id="svg5"
   inkscape:version="1.1.2 (0a00cf5339, 2022-02-04)"
   sodipodi:docname="bantads_mono.svg"
   xmlns:inkscape="http://www.inkscape.org/namespaces/inkscape"
   xmlns:sodipodi="http://sodipodi.sourceforge.net/DTD/sodipodi-0.dtd"
   xmlns="http://www.w3.org/2000/svg"
   xmlns:svg="http://www.w3.org/2000/svg">
  <sodipodi:namedview
     id="namedview7"
     pagecolor="#505050"
     bordercolor="#eeeeee"
     borderopacity="1"
     inkscape:pageshadow="0"
     inkscape:pageopacity="0"
     inkscape:pagecheckerboard="0"
     inkscape:document-units="mm"
     showgrid="false"
     inkscape:zoom="2.0107307"
     inkscape:cx="166.10876"
     inkscape:cy="19.893265"
     inkscape:window-width="1920"
     inkscape:window-height="997"
     inkscape:window-x="0"
     inkscape:window-y="0"
     inkscape:window-maximized="1"
     inkscape:current-layer="layer1" />
  <defs
     id="defs2">
    <rect
       x="292.43634"
       y="621.33911"
       width="265.71738"
       height="69.170441"
       id="rect20182" />
  </defs>
  <g
     inkscape:label="Layer 1"
     inkscape:groupmode="layer"
     id="layer1"
     transform="translate(-41.849066,-133.04018)">
    <g
       id="g9028">
      <path
         style="fill:#c1c1c1;fill-opacity:1;stroke:none;stroke-width:0.264583px;stroke-linecap:butt;stroke-linejoin:miter;stroke-opacity:1"
         d="m 41.849066,157.60765 11.176606,6.45282 v -13.12426 z"
         id="path6292" />
      <path
         style="fill:#ffffff;fill-opacity:1;stroke:none;stroke-width:0.264583px;stroke-linecap:butt;stroke-linejoin:miter;stroke-opacity:1"
         d="m 58.999786,147.61355 v -14.57337 l -17.15072,9.90197 v 14.6655 z"
         id="path54" />
    </g>
    <g
       id="g9034"
       transform="rotate(180,57.827887,151.37417)">
      <path
         style="fill:#c1c1c1;fill-opacity:1;stroke:none;stroke-width:0.264583px;stroke-linecap:butt;stroke-linejoin:miter;stroke-opacity:1"
         d="m 41.849066,157.60765 11.176606,6.45282 v -13.12426 z"
         id="path9030" />
      <path
         style="fill:#6b6b6b;fill-opacity:1;stroke:none;stroke-width:0.264583px;stroke-linecap:butt;stroke-linejoin:miter;stroke-opacity:1"
         d="m 58.999786,147.61355 v -14.57337 l -17.15072,9.90197 v 14.6655 z"
         id="path9032" />
    </g>
    <g
       aria-label="bantads"
       transform="matrix(0.51631739,0,0,0.62324089,-71.191166,-250.48244)"
       id="text20180"
       style="font-size:40px;line-height:1.25;white-space:pre;shape-inside:url(#rect20182);fill:#ffffff">
      <path
         d="m 295.79555,659.05522 v -30 h 4.2 v 8.2 h 5.52 q 1.52,0 2.8,0.52 1.28,0.52 2.2,1.48 0.96,0.92 1.48,2.24 0.56,1.28 0.56,2.8 v 7.68 q 0,1.52 -0.56,2.84 -0.52,1.28 -1.48,2.24 -0.92,0.92 -2.24,1.48 -1.28,0.52 -2.8,0.52 z m 8.8,-2.52 q 1.68,0 2.72,-1 1.04,-1.04 1.04,-2.72 v -9.28 q 0,-1.68 -1.04,-2.72 -1.04,-1.04 -2.72,-1.04 h -4.6 v 16.76 z"
         style="font-family:'Chiq Reduced';-inkscape-font-specification:'Chiq Reduced'"
         id="path33497" />
      <path
         d="m 324.95554,659.05522 q -1.44,0 -2.64,-0.48 -1.16,-0.48 -2.04,-1.28 -0.88,-0.84 -1.36,-1.96 -0.48,-1.12 -0.48,-2.4 0,-1.28 0.48,-2.4 0.48,-1.12 1.36,-1.96 0.88,-0.84 2.04,-1.32 1.2,-0.48 2.64,-0.48 h 6.04 v -3.24 q 0,-1.68 -1.04,-2.72 -1.04,-1.04 -2.72,-1.04 h -6.24 v -2.52 h 7.12 q 1.52,0 2.8,0.56 1.32,0.52 2.24,1.48 0.96,0.92 1.48,2.24 0.56,1.28 0.56,2.8 v 14.72 z m 6.04,-2.52 v -7.24 h -4.36 q -1.8,0 -2.92,1.08 -1.08,1.04 -1.08,2.56 0,1.52 1.08,2.56 1.12,1.04 2.92,1.04 z"
         style="font-family:'Chiq Reduced';-inkscape-font-specification:'Chiq Reduced'"
         id="path33499" />
      <path
         d="m 351.59554,637.25522 q 1.52,0 2.8,0.56 1.32,0.52 2.24,1.48 0.96,0.92 1.48,2.24 0.56,1.28 0.56,2.8 v 14.72 h -4.2 v -15.92 q 0,-1.4 -1.04,-2.36 -1.04,-1 -2.72,-1 h -4.6 v 19.28 h -4.2 v -21.8 z"
         style="font-family:'Chiq Reduced';-inkscape-font-specification:'Chiq Reduced'"
         id="path33501" />
      <path
         d="m 373.31554,659.05522 q -1.52,0 -2.84,-0.52 -1.28,-0.56 -2.24,-1.48 -0.92,-0.96 -1.48,-2.24 -0.52,-1.32 -0.52,-2.84 v -12.2 h -3.36 v -2.52 h 3.36 v -4.84 h 4.2 v 4.84 h 6.68 v 2.52 h -6.68 v 13.04 q 0,1.68 1,2.72 1.04,1 2.72,1 h 2.96 v 2.52 z"
         style="font-family:'Chiq Reduced';-inkscape-font-specification:'Chiq Reduced'"
         id="path33503" />
      <path
         d="m 386.99541,659.05522 q -1.44,0 -2.64,-0.48 -1.16,-0.48 -2.04,-1.28 -0.88,-0.84 -1.36,-1.96 -0.48,-1.12 -0.48,-2.4 0,-1.28 0.48,-2.4 0.48,-1.12 1.36,-1.96 0.88,-0.84 2.04,-1.32 1.2,-0.48 2.64,-0.48 h 6.04 v -3.24 q 0,-1.68 -1.04,-2.72 -1.04,-1.04 -2.72,-1.04 h -6.24 v -2.52 h 7.12 q 1.52,0 2.8,0.56 1.32,0.52 2.24,1.48 0.96,0.92 1.48,2.24 0.56,1.28 0.56,2.8 v 14.72 z m 6.04,-2.52 v -7.24 h -4.36 q -1.8,0 -2.92,1.08 -1.08,1.04 -1.08,2.56 0,1.52 1.08,2.56 1.12,1.04 2.92,1.04 z"
         style="font-family:'Chiq Reduced';-inkscape-font-specification:'Chiq Reduced'"
         id="path33505" />
      <path
         d="m 411.03541,659.05522 q -1.52,0 -2.84,-0.52 -1.28,-0.56 -2.24,-1.48 -0.92,-0.96 -1.48,-2.24 -0.52,-1.32 -0.52,-2.84 v -7.68 q 0,-1.52 0.52,-2.8 0.56,-1.32 1.48,-2.24 0.96,-0.96 2.24,-1.48 1.28,-0.52 2.8,-0.52 h 5.52 v -8.2 h 4.2 v 30 z m 5.48,-2.52 v -16.76 h -4.6 q -1.68,0 -2.72,1.04 -1.04,1.04 -1.04,2.72 v 9.28 q 0,1.68 1.04,2.72 1.04,1 2.72,1 z"
         style="font-family:'Chiq Reduced';-inkscape-font-specification:'Chiq Reduced'"
         id="path33507" />
      <path
         d="m 430.79541,642.73522 q 0,1.08 0.72,1.8 0.76,0.72 1.88,1.32 1.12,0.6 2.4,1.2 1.28,0.56 2.4,1.4 1.12,0.8 1.84,1.92 0.76,1.12 0.76,2.8 0,1.4 -0.56,2.48 -0.52,1.08 -1.48,1.84 -0.92,0.76 -2.24,1.16 -1.28,0.4 -2.84,0.4 -1.44,0 -2.68,-0.44 -1.2,-0.48 -2.12,-1.24 -0.92,-0.8 -1.52,-1.84 -0.56,-1.08 -0.72,-2.32 h 3.32 q 0,0.68 0.32,1.32 0.32,0.6 0.84,1.04 0.52,0.44 1.16,0.72 0.68,0.24 1.36,0.24 1.4,0 2.16,-0.76 0.76,-0.8 0.76,-2.2 0,-1.04 -0.76,-1.76 -0.72,-0.72 -1.84,-1.32 -1.08,-0.64 -2.4,-1.24 -1.28,-0.64 -2.4,-1.44 -1.08,-0.84 -1.84,-1.92 -0.72,-1.12 -0.72,-2.76 0,-1.36 0.52,-2.44 0.56,-1.12 1.48,-1.88 0.96,-0.76 2.24,-1.16 1.32,-0.4 2.88,-0.4 1.44,0 2.64,0.48 1.24,0.44 2.16,1.24 0.92,0.76 1.48,1.84 0.6,1.08 0.76,2.32 h -3.28 q 0,-0.68 -0.32,-1.28 -0.32,-0.64 -0.88,-1.08 -0.52,-0.48 -1.2,-0.72 -0.68,-0.28 -1.36,-0.28 -1.4,0 -2.16,0.8 -0.76,0.76 -0.76,2.16 z"
         style="font-family:'Chiq Reduced';-inkscape-font-specification:'Chiq Reduced'"
         id="path33509" />
    </g>
  </g>
</svg>
